<svg xmlns="http://www.w3.org/2000/svg" width="224" height="168" viewBox="0 0 224 168">
  <defs>
    <style>
      .d{fill:#fef9db}.b{fill:#3a36e4;stroke:#fff}.b,.c,.d,.e{stroke-linejoin:round;stroke-width:2px}.c{fill:#fff}.c,.d,.e{stroke:#3a36e4}.e{fill:#fff493}
    </style>
  </defs>
  <path d="M212 64.5c1.4-31.2-24.5-48.9-59.7-28.4-14.2 8.2-11.5-1.2-12.6-9.8-9.4-75-175.6 52.5-119.2 85.2 15.8 3.6 22 13.5 22.3 25.1.2 25.3 31.4 36.8 50 21.3 6.8-2.4 12.6-15.2 19.3-12.4 10 13.3 35.8 14.9 49.5 6 27.8-18 47.9-35.3 50.3-87z" fill="#fef9db"/>
  <path class="b" d="M180.9 100.4v40h-40.1v-40zM140.7 100.4v40h-40v-40zM100.6 100.4v40.1H60.5v-40z"/>
  <path class="c" d="M157.4 53l20 34.7-34.7 20-20-34.7z"/>
  <path class="c" d="M122.7 73l20 34.7-34.7 20L88 93zM87.9 93l20 34.8-34.7 20-20-34.7z"/>
  <path class="d" d="M113.3 23.5L148 43.6l-20 34.7-34.7-20z"/>
  <path class="d" d="M93.2 58.2l34.8 20-20 34.8-34.8-20zM73.2 93l34.7 20.1-20 34.7-34.7-20z"/>
  <path class="e" d="M60.5 20.1h40.1v40.1H60.5zM60.5 60.3h40.1v40.1H60.5zM60.5 100.4h40.1v40.1H60.5z"/>
  <circle cx="80.5" cy="120.5" r="4.7" fill="#3a36e4"/>
</svg>
