<svg xmlns="http://www.w3.org/2000/svg" width="336" height="252" viewBox="0 0 336 252">
  <defs>
    <style>
      .c{fill:#d2fffa}.b{fill:#7bfff0}.b,.c,.d{stroke:#3a36e4;stroke-linecap:round;stroke-linejoin:round;stroke-width:2px}.d{fill:#fff}.e{fill:#3a36e4}
    </style>
  </defs>
  <path d="M180.8 71.1C158.5 64 149.3 36 101 24.7 49.6 12.8 12.4 53.5 10.5 103c-3.2 80.4 56.2 121.5 103.2 129.3 33.5 5.5 71.4-1 105.5-28.8 28.5-23.1 53.4 12.7 81.8-5.3 45.6-29 27.7-142.7-32-158.6-44.7-12-69.1 37.7-88.2 31.5z" fill="#d2fffa"/>
  <path class="b" d="M107.5 109.7l11.8 66.8L48.6 189 32.8 99.2l47.6-8.4"/>
  <path class="c" d="M107.4 109.4l-22.6 4-4-22.7 26.6 18.7z"/>
  <path class="d" d="M44 162.5l70.6-12.4 4.7 26.4-70.7 12.4z"/>
  <path class="e" d="M65.3 179.2l-2.2-12.7 4-.7c3.6-.7 5.3.2 5.7 2.3a2.8 2.8 0 01-1.5 3v.1a3 3 0 013 2.7c.5 3-1.9 4-4.7 4.6zm2.9-8.2c1-.2 2.4-.7 2.2-2.2-.3-1.3-1.7-1.2-3-1l-1.6.3.6 3.2zm1.1 5.4c2-.3 2.7-1 2.5-2.3-.3-1.3-1.4-1.6-3-1.4l-2 .4.6 3.7zM78.8 176.8l-2.3-12.7 8.4-1.5.4 2-6 1.1.6 3.2 4.3-.8.3 2-4.3.7 1 5.6zM90.5 174.8L88.2 162l4-.7c4-.8 6.5 1 7.2 5 .8 4.3-1.1 7-5.3 7.7zm3.4-2.8c2.7-.5 3.6-2.2 3-5-.4-2.8-1.8-4-4.3-3.5l-1.6.2 1.5 8.5z"/>
  <path class="b" d="M203 85.5v67.8h-71.7V62h48.4"/>
  <path class="c" d="M203 85.1h-23v-23l23 23z"/>
  <path class="d" d="M131.3 126.5h71.8v26.8h-71.8z"/>
  <path class="e" d="M153 146.8a3.7 3.7 0 01-3.6-2l2-1.2a1.6 1.6 0 001.5 1.1c1 0 1.3-.5 1.3-1.8v-9.3h2.5v9c0 2.4-.9 4.2-3.7 4.2zM161 146.6v-13h4.5c3.4 0 5 1.3 5 4 0 2.8-1.8 4-5 4h-2v5zm4.6-7c1.1 0 2.4-.3 2.4-2 0-1.3-.8-1.9-2.3-1.9h-2.1v4zM181.7 146.6v-1.2a4 4 0 01-3.3 1.4c-3.3 0-5-2.6-5-6.7 0-4.3 2-6.7 5.4-6.7 2.6 0 4.1 1.2 4.8 3.9l-2.3.4c-.4-1.7-1.3-2.2-2.5-2.2-1.8 0-2.9 1.6-2.9 4.6 0 3 .9 4.7 3 4.7a2.4 2.4 0 002.6-2.5 2.7 2.7 0 000-.4H179v-1.8h4.8v6.5z"/>
  <path class="b" d="M299.5 122.2L287.7 189l-70.6-12.5 15.8-89.8 47.7 8.5"/>
  <path class="c" d="M299.6 121.9l-22.7-4 4-22.7 18.7 26.7z"/>
  <path class="d" d="M221.7 150l70.7 12.5-4.7 26.4-70.7-12.4z"/>
  <path class="e" d="M235.5 173l2.3-12.8 4.3.8c3.3.6 4.7 2.1 4.3 4.8-.5 2.7-2.5 3.6-5.7 3l-1.9-.3-.8 4.9zm5.7-6.1c1.1.2 2.4.1 2.7-1.6.2-1.2-.5-2-2-2.2l-2-.4-.7 3.8zM256.1 176.6l-3.7-10.3-1.7 9.3-2.3-.4 2.2-12.7 3 .5 3.3 9.4 1.6-8.5 2.3.4-2.3 12.7zM270.4 179.1l.2-1.2a4 4 0 01-3.5.9c-3.2-.6-4.5-3.5-3.8-7.5.8-4.2 3.2-6.2 6.5-5.6 2.5.4 3.9 1.8 4 4.6h-2.3c-.1-1.7-.9-2.4-2-2.6-1.8-.3-3.2 1-3.7 4s0 4.8 2.2 5.2a2.4 2.4 0 003-2 2.6 2.6 0 000-.4l-2.5-.4.3-1.8 4.7.8-1.2 6.3z"/>
</svg>
