<svg xmlns="http://www.w3.org/2000/svg" width="336" height="252" viewBox="0 0 336 252">
  <defs>
    <style>
      .a{fill:#f2e1ff}.b{fill:#fff}.c,.e{fill:none}.c{stroke:#3a36e4;stroke-linecap:round;stroke-linejoin:round;stroke-width:2px}.d{fill:#e2bfff}
    </style>
  </defs>
  <path class="a" d="M96.3 19.8C34 45.6-21.2 134.7 21 185.2c38.8 46.5 87.5-1 113.4 34.2 23.9 32.7 88.4 42.4 113-13.1 18.2-41 38.9-26.3 70.5-64.6 30.8-37.1 2.4-97.3-41.7-102-44.9-4.6-63.3 32.7-80.8-1.2C170.5-9.8 124.8 8 96.3 19.8z"/>
  <path class="b" d="M116.3 66.2h128v91.4h-128z"/>
  <path class="c" d="M116.3 66.2h128v91.4h-128z"/>
  <path class="d" d="M119.5 120.4L145.8 95a9 9 0 0112.9.4l23.7 26a9 9 0 0012.4.8l16.7-14.2a9 9 0 0112.1.5l18 17.8a9.1 9.1 0 012.6 6.5V157a.5.5 0 01-.5.5h-127V127a9.1 9.1 0 012.8-6.6z"/>
  <path class="a" d="M244.2 81.5c-2-4.3-6.2-7.6-13.3-6.4-6 1-8.7 6.5-8.9 10.8-6.1-6.5-14.3-.8-15.7 5.2a9.5 9.5 0 001 7.3h37s.8-15.2 0-17z"/>
  <circle class="d" cx="188.8" cy="100.3" r="11.5"/>
  <path class="a" d="M158.3 123.7s.8-7-3.2-11.8c-3.4-4.2-12.7-6.3-17.4.4-.4-6.5-4.7-13.6-14.7-12-6 1-8.7 6.6-9 10.8-6-6.5-14.2-.8-15.6 5.3a9.5 9.5 0 001 7.3z"/>
  <path class="e" d="M116.3 66.2h128v91.4h-128z"/>
  <path class="c" d="M116.3 66.2h128v91.4h-128z"/>
  <path class="b" d="M104.2 79.4h128v91.4h-128z"/>
  <path class="c" d="M104.2 79.4h128v91.4h-128z"/>
  <path class="d" d="M107.5 133.6l26.3-25.5a9 9 0 0112.8.4l23.7 26a9 9 0 0012.5.8l16.7-14.1a9 9 0 0112 .4l18 17.8a9.1 9.1 0 012.7 6.5v24.3a.5.5 0 01-.5.6h-127V140a9.1 9.1 0 012.8-6.5z"/>
  <path class="a" d="M232.5 95.4c-1.8-4.7-6.1-8.4-13.6-7.2-6 1-8.7 6.6-9 10.8-6-6.5-14.2-.8-15.6 5.3a9.5 9.5 0 001 7.2h36.9s1-14.6.3-16.1z"/>
  <circle class="d" cx="176.8" cy="113.5" r="11.5"/>
  <path class="a" d="M146.2 136.8s.9-7-3.1-11.8c-3.5-4.2-12.7-6.2-17.5.4-.3-6.4-4.7-13.6-14.6-12-6 1-8.7 6.6-9 10.9-6-6.6-14.3-.9-15.6 5.2a9.5 9.5 0 001 7.3z"/>
  <path class="e" d="M104.2 79.4h128v91.4h-128z"/>
  <path class="c" d="M104.2 79.4h128v91.4h-128z"/>
  <path class="b" d="M92.4 92.5h128v91.4h-128z"/>
  <path class="c" d="M92.4 92.5h128v91.4h-128z"/>
  <path class="d" d="M95.7 146.7l26.3-25.5a9 9 0 0112.8.4l23.7 26a9 9 0 0012.5.8l16.7-14.1a9 9 0 0112 .4l18 17.8a9.1 9.1 0 012.7 6.5v24.3a.5.5 0 01-.5.6h-127v-30.7a9.1 9.1 0 012.8-6.5z"/>
  <path class="a" d="M220.8 108.6c-1.8-4.7-6.2-8.5-13.7-7.3-6 1-8.7 6.6-9 10.8-6-6.5-14.2-.8-15.6 5.3a9.5 9.5 0 001 7.3h36.3s1.5-14.6 1-16.1z"/>
  <circle class="d" cx="165" cy="126.6" r="11.5"/>
  <path class="a" d="M134.4 149.9s.9-7-3.1-11.8c-3.5-4.2-12.7-6.2-17.5.4-.3-6.4-4.7-13.6-14.6-12-6 1-8.7 6.6-9 10.9-6-6.5-14.3-.8-15.6 5.2a9.5 9.5 0 001 7.3z"/>
  <path class="e" d="M92.4 92.5h128v91.4h-128z"/>
  <path class="c" d="M92.4 92.5h128v91.4h-128z"/>
  <circle cx="91.7" cy="176.1" r="19.9" stroke="#3a36e4" stroke-linecap="round" stroke-linejoin="round" stroke-width="2" fill="#fff"/>
  <path class="c" d="M91.7 167.3v17.5M82.9 176.1h17.5"/>
</svg>
