<svg xmlns="http://www.w3.org/2000/svg" width="192" height="108" viewBox="0 0 192 108">
    <defs>
        <style>
            .a{fill:#d2fffa}.b{fill:#fff}.b,.e,.h{stroke:#3a36e4;stroke-linecap:round;stroke-linejoin:round;stroke-width:2px}.c,.h{fill:#7bfff0}.e{fill:none}
        </style>
    </defs>
    <path class="a" d="M0 0h192v108H0z"/>
    <path class="b" d="M131.4 17h41v52.7h-41z"/>
    <path class="b" d="M137.1 22.5H167v22.6h-29.9zM137.1 52.2h29.8M137.1 57.6h29.8"/>
    <path class="a" d="M165.5 43.7V31.9a8.8 8.8 0 00-7.3.1c-4 1.9-6.2 6.7-11.2 6.8-2.4 0-8.6-1.7-8.6-1.7v6.6z"/>
    <path class="b" d="M137.1 63h29.8"/>
    <path class="c" d="M138.4 43.7V34a10.5 10.5 0 017.4.1c4 1.5 6.1 5.5 11.1 5.6 2.5 0 8.6-1.5 8.6-1.5v5.5z"/>
    <circle class="c" cx="157.4" cy="31.2" r="3.9"/>
    <path fill="#fff" d="M111.6 49.4h41v41h-41z"/>
    <path class="e" d="M111.6 49.4h41v41h-41z"/>
    <circle class="c" cx="135.6" cy="64.7" r="4.7"/>
    <path class="c" d="M112.5 77.5l8.5-8.8a2.7 2.7 0 014.1.1l7.6 9a2.7 2.7 0 004 .3l5.4-5a2.7 2.7 0 013.9.3l5.7 6.1a3.3 3.3 0 01.9 2.3v8.4a.2.2 0 01-.2.2h-40.8V79.8a3.3 3.3 0 011-2.3z"/>
    <path fill="none" d="M111.6 49.4h41v41h-41z"/>
    <path class="e" d="M111.6 49.4h41v41h-41z"/>
    <path stroke="#3a36e4" stroke-linecap="round" stroke-linejoin="round" stroke-width="2" fill="#d2fffa" d="M102 42.1h19.3V65H102z"/>
    <path class="b" d="M82.7 24.9h38.6v16.9H82.7z"/>
    <path class="c" d="M117.5 35.5c-2 0-2-2.7-4-2.7s-1.8 2.7-3.8 2.7-2-2.7-3.8-2.7-2 2.7-3.9 2.7-2-2.7-3.9-2.7-1.9 2.7-3.8 2.7-2-2.7-3.9-2.7-2 2.7-3.8 2.7-2-2.7-3.9-2.7V42h38.6v-9.3c-2 0-2 2.7-3.8 2.7z"/>
    <path class="e" d="M82.7 24.9h38.6V65H82.7zM82.7 24.9h38.6M121.3 42.1H82.7"/>
    <path class="b" d="M82.7 42.1H102V65H82.7z"/>
    <path class="h" d="M102 42.2h19.3v10.5H102z"/>
    <path class="c" d="M84 63.6a8.3 8.3 0 0116.6 0z"/>
    <circle class="c" cx="92.4" cy="50.8" r="3.3"/>
    <circle class="h" cx="25.1" cy="30.6" r="5.9"/>
    <path class="e" d="M36.8 26.9h30.6M36.8 34.2h30.6"/>
    <circle class="h" cx="25.1" cy="55.1" r="5.9"/>
    <path class="e" d="M36.8 51.4h30.6M36.8 58.7h22.4"/>
    <circle class="h" cx="25.1" cy="79.5" r="5.9"/>
    <path class="e" d="M36.8 75.9h30.6M36.8 83.2h30.6"/>
</svg>
