<svg xmlns="http://www.w3.org/2000/svg" width="192" height="108" viewBox="0 0 192 108">
    <defs>
        <style>
            .a{fill:#f2e1ff}.e{fill:#fff}.c,.f{fill:none}.c,.e,.f{stroke:#3a36e4;stroke-linejoin:round;stroke-width:2px}.c,.e{stroke-linecap:round}.d{fill:#e2bfff}
        </style>
    </defs>
    <path class="a" d="M0 0h192v108H0z"/>
    <path fill="#fff" d="M66.1 30.4h64.8v46.3H66.1z"/>
    <path class="c" d="M66.1 30.4h64.8v46.3H66.1z"/>
    <path class="d" d="M69 57.2L81.7 45a4.3 4.3 0 016.2.2l11.5 12.6a4.3 4.3 0 006 .4l8.2-6.9a4.3 4.3 0 015.8.2l8.7 8.6a4.4 4.4 0 011.3 3.2V75a.3.3 0 01-.2.2H67.6V60.4a4.4 4.4 0 011.4-3.2z"/>
    <path class="c" d="M44.5 23H20.3M44.5 30.7H20.3M44.5 38.4H20.3"/>
    <circle class="e" cx="36.8" cy="23" r="2.7"/>
    <circle class="e" cx="26.9" cy="30.7" r="2.7"/>
    <circle class="e" cx="36.8" cy="38.4" r="2.7"/>
    <path class="a" d="M142.1 46.7s.4-3.6-1.6-6c-1.7-2.1-6.4-3.2-8.8.2-.2-3.3-2.4-6.9-7.5-6-3 .4-4.4 3.3-4.5 5.4-3-3.3-7.2-.4-8 2.7a4.8 4.8 0 00.6 3.7z"/>
    <circle class="e" cx="160.9" cy="78.8" r="7.8"/>
    <path class="c" d="M160.9 71v15.6"/>
    <path class="f" d="M160.9 77.8l4.9-4.9M160.9 84l7.2-7.2"/>
    <path class="c" d="M160.9 62.7v3.4M149.5 67.4l2.4 2.4M144.7 78.8h3.5M149.5 90.2l2.4-2.4M160.9 95v-3.5M172.3 90.2l-2.4-2.4M177 78.8h-3.4M172.3 67.4l-2.4 2.4M155 25.8h11.7v11.7H155zM155 20v5.8h-5.8M166.7 43.4v-5.9h6"/>
    <path class="e" d="M155 25.8h11.7v11.7H155z"/>
    <circle class="d" cx="102.9" cy="47.6" r="5.8"/>
    <path class="a" d="M87.4 59.4s.4-3.5-1.6-6c-1.7-2-6.4-3-8.8.3-.2-3.3-2.4-6.9-7.4-6-3 .4-4.4 3.2-4.6 5.4-3-3.3-7.2-.4-8 2.7a4.8 4.8 0 00.6 3.6z"/>
    <path fill="none" d="M66.1 30.4h64.8v46.3H66.1z"/>
    <path class="c" d="M66.1 30.4h64.8v46.3H66.1z"/>
    <circle class="e" cx="68.6" cy="75.9" r="10.1"/>
    <path class="c" d="M68.6 72.3v7.2M64.9 75.9h7.3M32.2 70.3V87M28.1 87.7h8.1M23.3 73.2V70H41v3.2"/>
</svg>
