<svg xmlns="http://www.w3.org/2000/svg" width="192" height="108" viewBox="0 0 192 108">
    <defs>
        <style>
            .b{fill:#fff}.b,.c,.d{stroke:#3a36e4;stroke-linecap:round;stroke-linejoin:round;stroke-width:2px}.c,.e{fill:#fff493}.d{fill:none}
        </style>
    </defs>
    <path fill="#fef9db" d="M0 0h192v108H0z"/>
    <path class="b" d="M113.7 47.5a18 18 0 10-29.3 14.1l2 8.6h18.5l2-8.6a18 18 0 006.8-14z"/>
    <path class="c" d="M104 83.9H87.3l-1.4-13.7h19.5L104 83.9z"/>
    <path class="b" d="M84.8 74.7h21.7"/>
    <path class="d" d="M85.3 79.3H106"/>
    <path class="c" d="M99 89h-6.8l-1.6-5.1h10l-1.6 5z"/>
    <path class="d" d="M95.6 15v5.5M72.4 24.6l3.9 3.9M62.8 47.9h5.5M72.4 71.1l3.9-3.9M118.9 71.1l-3.9-3.9M128.5 47.9H123M118.9 24.6l-3.9 3.9"/>
    <path class="b" d="M19.2 39.3h28.5v28.5H19.2z"/>
    <path class="e" d="M20.6 55.1l5.6-6.6a1.3 1.3 0 012 0l5.6 7a1.3 1.3 0 001.8.1l4.4-3.9a1.3 1.3 0 011.7.1l4.7 4.7v10H20.6z"/>
    <circle class="e" cx="35.7" cy="46.7" r="3.4"/>
    <path class="b" d="M28.3 60.6h28.5v28.5H28.3zM174.5 45.5H146V17h28.5z"/>
    <path class="c" d="M160.2 31.3h14.3v14.3h-14.3z"/>
    <path class="b" d="M165.5 65.8H137V37.3h28.5z"/>
    <path class="e" d="M158.9 45.2a4.5 4.5 0 00-6.4 0l-1.3 1.2-1.2-1.2a4.5 4.5 0 10-6.4 6.4l7.6 7.6 6.4-6.4 1.3-1.2a4.5 4.5 0 000-6.4z"/>
    <path class="b" d="M33.5 72.9h17.8M33.5 67.2h17.8M28.9 79.3h26.8"/>
    <path class="c" d="M145.9 17h14.3v14.3h-14.3z"/>
</svg>
