<svg xmlns="http://www.w3.org/2000/svg" width="192" height="108" viewBox="0 0 192 108">
    <defs>
        <style>
            .b,.c,.e{fill:#fff;stroke:#3a36e4;stroke-linejoin:round;stroke-width:2px;stroke-linecap:round}.c,.e{fill:none}.e{stroke-dasharray:3 6}
        </style>
    </defs>
    <path fill="#ffe9e4" d="M0 0h192v108H0z"/>
    <path class="b" d="M23.4 29.9H57v23.3H23.4z"/>
    <path class="c" d="M23.4 61.6H57M23.4 67.3H57M23.4 72.9h19"/>
    <path class="b" d="M136 17h33.6v23.3H136z"/>
    <path class="c" d="M136 48.8h33.5M136 54.4h33.5M136 60.1h23.2"/>
    <path fill="#ffd1c7" stroke-linecap="round" stroke="#3a36e4" stroke-linejoin="round" stroke-width="2" d="M81.9 44.6h33.6v23.3H81.9z"/>
    <path class="c" d="M81.9 76.4h33.5M81.9 82h33.5M81.9 87.6h23.2"/>
    <path class="e" d="M43.3 21.7s9.6-13.1 29.3-5A23.7 23.7 0 0187 37M157 71.3S159.9 85 143.6 93c-11.3 5.5-25.4-3-25.4-3"/>
    <path fill="#ffd1c7" stroke="#3a36e4" stroke-linejoin="round" stroke-width="2" d="M46 41.5l-10-5.8v11.6l10-5.8z"/>
    <circle cx="98.6" cy="56.2" r="5.8" fill="#fff"/>
    <path fill="#ffd1c7" d="M137.4 18.5l30.7 20.4h-30.7V18.5z"/>
    <path class="c" d="M90.3 32.1L87.7 38l-5.1-3.7M153.2 73.5l3-5.7 4.8 4"/>
</svg>
